<?xml version="1.0" encoding="UTF-8" standalone="no"?>
<!DOCTYPE svg PUBLIC "-//W3C//DTD SVG 1.1//EN" "http://www.w3.org/Graphics/SVG/1.1/DTD/svg11.dtd">
<svg width="100%" height="100%" viewBox="0 0 640 512" version="1.1" xmlns="http://www.w3.org/2000/svg" xmlns:xlink="http://www.w3.org/1999/xlink" xml:space="preserve" xmlns:serif="http://www.serif.com/" style="fill-rule:evenodd;clip-rule:evenodd;stroke-linejoin:round;stroke-miterlimit:1.41421;">
    <g transform="matrix(1,0,0,1,-1065,0)">
        <g id="_2by2-basic" serif:id="2by2-basic" transform="matrix(0.483749,0,0,0.533333,944.063,-633.067)">
            <rect x="250" y="1187" width="1323" height="960" style="fill:none;"/>
            <clipPath id="_clip1">
                <rect x="250" y="1187" width="1323" height="960"/>
            </clipPath>
            <g clip-path="url(#_clip1)">
                <g transform="matrix(2.06719,0,0,1.85307,-4907.63,-2150.82)">
                    <rect x="2559" y="1866" width="256" height="259.03" style="fill:rgb(123,145,158);"/>
                    <path d="M2815,2125.03L2559,2125.03L2559,1866L2815,1866L2815,2125.03ZM2563,1870.05L2563,2120.98L2811,2120.98L2811,1870.05L2563,1870.05Z" style="fill:rgb(209,217,221);"/>
                </g>
                <g transform="matrix(3.10078,0,0,0.926533,-7684.9,178.089)">
                    <rect x="2559" y="1866" width="256" height="259.03" style="fill:rgb(123,145,158);"/>
                </g>
                <g transform="matrix(2.06719,0,0,1.875,-4907.63,-2191.75)">
                    <rect x="2879" y="2058" width="64" height="64" style="fill:rgb(123,145,158);"/>
                </g>
                <g transform="matrix(2.06719,0,0,1.875,-4775.33,-2071.75)">
                    <rect x="2879" y="2058" width="64" height="64" style="fill:rgb(123,145,158);"/>
                </g>
                <g transform="matrix(2.06719,0,0,-1.875,-4643.03,5765.75)">
                    <rect x="2879" y="2058" width="64" height="64" style="fill:rgb(123,145,158);"/>
                </g>
                <g transform="matrix(2.06719,0,0,-1.875,-4510.73,5645.75)">
                    <rect x="2879" y="2058" width="64" height="64" style="fill:rgb(123,145,158);"/>
                </g>
                <g transform="matrix(-2.06719,0,0,-1.875,7524.43,6005.75)">
                    <rect x="2879" y="2058" width="64" height="64" style="fill:rgb(123,145,158);"/>
                </g>
                <g transform="matrix(-2.06719,0,0,-1.875,7392.13,5885.75)">
                    <rect x="2879" y="2058" width="64" height="64" style="fill:rgb(123,145,158);"/>
                </g>
                <g transform="matrix(-2.06719,0,0,1.875,7259.83,-1951.75)">
                    <rect x="2879" y="2058" width="64" height="64" style="fill:rgb(123,145,158);"/>
                </g>
                <g transform="matrix(-2.06719,0,0,1.875,7127.53,-1831.75)">
                    <rect x="2879" y="2058" width="64" height="64" style="fill:rgb(123,145,158);"/>
                </g>
                <g transform="matrix(2.06719,0,0,1.875,-4907.63,-2191.75)">
                    <path d="M2879,1802L3135,1802C3135,1802 3135,2058 3135,2058L2879,2058C2879,2058 2879,1802 2879,1802ZM2943,1866L2943,1994L3071,1994L3071,1866L2943,1866Z" style="fill:rgb(123,145,158);"/>
                    <clipPath id="_clip2">
                        <path d="M2879,1802L3135,1802C3135,1802 3135,2058 3135,2058L2879,2058C2879,2058 2879,1802 2879,1802ZM2943,1866L2943,1994L3071,1994L3071,1866L2943,1866Z"/>
                    </clipPath>
                    <g clip-path="url(#_clip2)">
                        <path d="M3071.45,1862.03L3071.89,1862.1L3072.32,1862.22L3072.74,1862.4L3073.13,1862.61L3073.49,1862.87L3073.83,1863.17L3074.13,1863.51L3074.39,1863.87L3074.6,1864.26L3074.78,1864.68L3074.9,1865.11L3074.97,1865.55L3075,1866L3075,1994L3074.97,1994.45L3074.9,1994.89L3074.78,1995.32L3074.6,1995.74L3074.39,1996.13L3074.13,1996.49L3073.83,1996.83L3073.49,1997.13L3073.13,1997.39L3072.74,1997.6L3072.32,1997.78L3071.89,1997.9L3071.45,1997.98L3071,1998L2943,1998L2942.55,1997.98L2942.11,1997.9L2941.68,1997.78L2941.26,1997.6L2940.87,1997.39L2940.51,1997.13L2940.17,1996.83L2939.87,1996.49L2939.61,1996.13L2939.4,1995.74L2939.22,1995.32L2939.1,1994.89L2939.03,1994.45L2939,1994L2939,1866L2939.03,1865.55L2939.1,1865.11L2939.22,1864.68L2939.4,1864.26L2939.61,1863.87L2939.87,1863.51L2940.17,1863.17L2940.51,1862.87L2940.87,1862.61L2941.26,1862.4L2941.68,1862.22L2942.11,1862.1L2942.55,1862.03L2943,1862L3071,1862L3071.45,1862.03ZM2943,1866L2943,1994L3071,1994L3071,1866L2943,1866Z" style="fill:rgb(209,217,221);"/>
                    </g>
                </g>
                <g transform="matrix(2.06719,0,0,1.875,-4907.63,-2191.75)">
                    <path d="M2879,1802L3135,1802C3135,1802 3135,2058 3135,2058L2879,2058C2879,2058 2879,1802 2879,1802ZM2943,1866L2943,1994L3071,1994L3071,1866L2943,1866Z" style="fill:rgb(123,145,158);"/>
                    <clipPath id="_clip3">
                        <path d="M2879,1802L3135,1802C3135,1802 3135,2058 3135,2058L2879,2058C2879,2058 2879,1802 2879,1802ZM2943,1866L2943,1994L3071,1994L3071,1866L2943,1866Z"/>
                    </clipPath>
                    <g clip-path="url(#_clip3)">
                        <path d="M3071.45,1862.03L3071.89,1862.1L3072.32,1862.22L3072.74,1862.4L3073.13,1862.61L3073.49,1862.87L3073.83,1863.17L3074.13,1863.51L3074.39,1863.87L3074.6,1864.26L3074.78,1864.68L3074.9,1865.11L3074.97,1865.55L3075,1866L3075,1994L3074.97,1994.45L3074.9,1994.89L3074.78,1995.32L3074.6,1995.74L3074.39,1996.13L3074.13,1996.49L3073.83,1996.83L3073.49,1997.13L3073.13,1997.39L3072.74,1997.6L3072.32,1997.78L3071.89,1997.9L3071.45,1997.98L3071,1998L2943,1998L2942.55,1997.98L2942.11,1997.9L2941.68,1997.78L2941.26,1997.6L2940.87,1997.39L2940.51,1997.13L2940.17,1996.83L2939.87,1996.49L2939.61,1996.13L2939.4,1995.74L2939.22,1995.32L2939.1,1994.89L2939.03,1994.45L2939,1994L2939,1866L2939.03,1865.55L2939.1,1865.11L2939.22,1864.68L2939.4,1864.26L2939.61,1863.87L2939.87,1863.51L2940.17,1863.17L2940.51,1862.87L2940.87,1862.61L2941.26,1862.4L2941.68,1862.22L2942.11,1862.1L2942.55,1862.03L2943,1862L3071,1862L3071.45,1862.03ZM2943,1866L2943,1994L3071,1994L3071,1866L2943,1866Z" style="fill:rgb(209,217,221);"/>
                    </g>
                </g>
                <g transform="matrix(2.06719,0,0,1.875,-2105.68,-1850.03)">
                    <text x="1301px" y="1844px" style="font-family:'SourceCodePro-Medium', 'Source Code Pro', monospace;font-weight:500;font-size:100px;fill:rgb(209,217,221);">0</text>
                </g>
                <g transform="matrix(2.06719,0,0,1.875,-2368.51,-1370.69)">
                    <text x="1301px" y="1844px" style="font-family:'SourceCodePro-Medium', 'Source Code Pro', monospace;font-weight:500;font-size:100px;fill:rgb(209,217,221);">1</text>
                </g>
                <g transform="matrix(2.06719,0,0,1.875,-2109.92,-1370.69)">
                    <text x="1301px" y="1844px" style="font-family:'SourceCodePro-Medium', 'Source Code Pro', monospace;font-weight:500;font-size:100px;fill:rgb(209,217,221);">2</text>
                </g>
                <g transform="matrix(2.06719,0,0,1.875,-1842.29,-1370.69)">
                    <text x="1301px" y="1844px" style="font-family:'SourceCodePro-Medium', 'Source Code Pro', monospace;font-weight:500;font-size:100px;fill:rgb(209,217,221);">3</text>
                </g>
            </g>
        </g>
    </g>
</svg>
