<?xml version="1.0" encoding="UTF-8" standalone="no"?>
<!DOCTYPE svg PUBLIC "-//W3C//DTD SVG 1.1//EN" "http://www.w3.org/Graphics/SVG/1.1/DTD/svg11.dtd">
<svg width="100%" height="100%" viewBox="0 0 1024 1024" version="1.1" xmlns="http://www.w3.org/2000/svg" xmlns:xlink="http://www.w3.org/1999/xlink" xml:space="preserve" xmlns:serif="http://www.serif.com/" style="fill-rule:evenodd;clip-rule:evenodd;stroke-linecap:square;stroke-linejoin:round;stroke-miterlimit:1.5;">
    <g id="_3by3" serif:id="3by3" transform="matrix(0.997245,0,0,0.997245,1.41032,-1291.02)">
        <rect x="-1.414" y="1294.59" width="1026.83" height="1026.83" style="fill:none;"/>
        <clipPath id="_clip1">
            <rect x="-1.414" y="1294.59" width="1026.83" height="1026.83"/>
        </clipPath>
        <g clip-path="url(#_clip1)">
            <g transform="matrix(0.534806,0,0,0.668508,409.317,396.111)">
                <rect x="32" y="1792" width="320" height="64" style="fill:rgb(123,145,158);"/>
                <path d="M352,1856L32,1856L32,1792L352,1792L352,1856ZM39.5,1798L39.5,1850L344.5,1850L344.5,1798L39.5,1798Z" style="fill:rgb(209,217,221);"/>
            </g>
            <g transform="matrix(3.27475e-17,0.534806,-0.668508,4.09343e-17,1667.18,1320.26)">
                <rect x="32" y="1792" width="320" height="64" style="fill:rgb(123,145,158);"/>
                <path d="M352,1792L352,1856L32,1856L32,1792L352,1792ZM39.5,1850L344.5,1850L344.5,1798L39.5,1798L39.5,1850Z" style="fill:rgb(209,217,221);"/>
            </g>
            <g id="T" transform="matrix(-6.14015e-17,-1.00276,-1.00276,6.14015e-17,2405.21,2193.06)">
                <path d="M725.333,1760L725.333,1888L682.667,1888L682.667,1845.33L640,1845.33L640,1802.67L682.667,1802.67L682.667,1760L725.333,1760Z" style="fill:rgb(123,145,158);"/>
                <clipPath id="_clip2">
                    <path d="M725.333,1760L725.333,1888L682.667,1888L682.667,1845.33L640,1845.33L640,1802.67L682.667,1802.67L682.667,1760L725.333,1760Z"/>
                </clipPath>
                <g clip-path="url(#_clip2)">
                    <path d="M725.333,1760L725.333,1888" style="fill:none;stroke:rgb(209,217,221);stroke-width:8px;"/>
                    <path d="M682.667,1888L682.667,1845.33L640,1845.33" style="fill:none;stroke:rgb(209,217,221);stroke-width:8px;"/>
                    <path d="M640,1802.67L682.667,1802.67L682.667,1760" style="fill:none;stroke:rgb(209,217,221);stroke-width:8px;"/>
                </g>
            </g>
            <g id="T1" serif:id="T" transform="matrix(1.00276,-1.22803e-16,-1.22803e-16,-1.00276,-1.41421,3187.8)">
                <path d="M725.333,1760L725.333,1888L682.667,1888L682.667,1845.33L640,1845.33L640,1802.67L682.667,1802.67L682.667,1760L725.333,1760Z" style="fill:rgb(123,145,158);"/>
                <clipPath id="_clip3">
                    <path d="M725.333,1760L725.333,1888L682.667,1888L682.667,1845.33L640,1845.33L640,1802.67L682.667,1802.67L682.667,1760L725.333,1760Z"/>
                </clipPath>
                <g clip-path="url(#_clip3)">
                    <path d="M725.333,1760L725.333,1888" style="fill:none;stroke:rgb(209,217,221);stroke-width:8px;"/>
                    <path d="M682.667,1888L682.667,1845.33L640,1845.33" style="fill:none;stroke:rgb(209,217,221);stroke-width:8px;"/>
                    <path d="M640,1802.67L682.667,1802.67L682.667,1760" style="fill:none;stroke:rgb(209,217,221);stroke-width:8px;"/>
                </g>
            </g>
            <g id="T2" serif:id="T" transform="matrix(1.84204e-16,1.00276,1.00276,-1.84204e-16,-1124.51,781.172)">
                <path d="M725.333,1760L725.333,1888L682.667,1888L682.667,1845.33L640,1845.33L640,1802.67L682.667,1802.67L682.667,1760L725.333,1760Z" style="fill:rgb(123,145,158);"/>
                <clipPath id="_clip4">
                    <path d="M725.333,1760L725.333,1888L682.667,1888L682.667,1845.33L640,1845.33L640,1802.67L682.667,1802.67L682.667,1760L725.333,1760Z"/>
                </clipPath>
                <g clip-path="url(#_clip4)">
                    <path d="M725.333,1760L725.333,1888" style="fill:none;stroke:rgb(209,217,221);stroke-width:8px;"/>
                    <path d="M682.667,1888L682.667,1845.33L640,1845.33" style="fill:none;stroke:rgb(209,217,221);stroke-width:8px;"/>
                    <path d="M640,1802.67L682.667,1802.67L682.667,1760" style="fill:none;stroke:rgb(209,217,221);stroke-width:8px;"/>
                </g>
            </g>
            <g id="T3" serif:id="T" transform="matrix(-1.00276,-1.22803e-16,1.22803e-16,-1.00276,1282.12,3187.8)">
                <path d="M725.333,1760L725.333,1888L682.667,1888L682.667,1845.33L640,1845.33L640,1802.67L682.667,1802.67L682.667,1760L725.333,1760Z" style="fill:rgb(123,145,158);"/>
                <clipPath id="_clip5">
                    <path d="M725.333,1760L725.333,1888L682.667,1888L682.667,1845.33L640,1845.33L640,1802.67L682.667,1802.67L682.667,1760L725.333,1760Z"/>
                </clipPath>
                <g clip-path="url(#_clip5)">
                    <path d="M725.333,1760L725.333,1888" style="fill:none;stroke:rgb(209,217,221);stroke-width:8px;"/>
                    <path d="M682.667,1888L682.667,1845.33L640,1845.33" style="fill:none;stroke:rgb(209,217,221);stroke-width:8px;"/>
                    <path d="M640,1802.67L682.667,1802.67L682.667,1760" style="fill:none;stroke:rgb(209,217,221);stroke-width:8px;"/>
                </g>
            </g>
            <g id="Cross" transform="matrix(1.00276,0,0,1.00276,-129.768,-213.568)">
                <path d="M853.333,1802.67L896,1802.67L896,1845.33L853.333,1845.33L853.333,1888L810.667,1888L810.667,1845.33L768,1845.33L768,1802.67L810.667,1802.67L810.667,1760L853.333,1760L853.333,1802.67Z" style="fill:rgb(123,145,158);"/>
                <clipPath id="_clip6">
                    <path d="M853.333,1802.67L896,1802.67L896,1845.33L853.333,1845.33L853.333,1888L810.667,1888L810.667,1845.33L768,1845.33L768,1802.67L810.667,1802.67L810.667,1760L853.333,1760L853.333,1802.67Z"/>
                </clipPath>
                <g clip-path="url(#_clip6)">
                    <g transform="matrix(-6.12323e-17,-1,-1,6.12323e-17,2656,2528)">
                        <path d="M682.667,1888L682.667,1845.33L640,1845.33" style="fill:none;stroke:rgb(209,217,221);stroke-width:8px;"/>
                    </g>
                    <g transform="matrix(-6.12323e-17,-1,-1,6.12323e-17,2656,2528)">
                        <path d="M640,1802.67L682.667,1802.67L682.667,1760" style="fill:none;stroke:rgb(209,217,221);stroke-width:8px;"/>
                    </g>
                    <g transform="matrix(-6.12323e-17,1,-1,-6.12323e-17,2656,1120)">
                        <path d="M682.667,1888L682.667,1845.33L640,1845.33" style="fill:none;stroke:rgb(209,217,221);stroke-width:8px;"/>
                    </g>
                    <g transform="matrix(-6.12323e-17,1,-1,-6.12323e-17,2656,1120)">
                        <path d="M640,1802.67L682.667,1802.67L682.667,1760" style="fill:none;stroke:rgb(209,217,221);stroke-width:8px;"/>
                    </g>
                </g>
            </g>
            <g transform="matrix(1.00276,0,0,1.00276,-1.41421,-4.99394)">
                <path d="M42.667,1338.67L341.333,1338.67L341.333,1637.33L42.667,1637.33L42.667,1338.67ZM85.333,1381.33L85.333,1594.67L298.667,1594.67L298.667,1381.33L85.333,1381.33Z" style="fill:rgb(123,145,158);"/>
                <path d="M341.333,1637.33L42.667,1637.33L42.667,1338.67L341.333,1338.67L341.333,1637.33ZM46.667,1342.67L46.667,1633.33L337.333,1633.33L337.333,1342.67L46.667,1342.67ZM300.197,1377.64L301.495,1378.51L302.362,1379.8L302.667,1381.33L302.667,1594.67L302.362,1596.2L301.495,1597.5L300.197,1598.36L298.667,1598.67L85.333,1598.67L83.803,1598.36L82.505,1597.5L81.638,1596.2L81.333,1594.67L81.333,1381.33L81.638,1379.8L82.505,1378.51L83.803,1377.64L85.333,1377.33L298.667,1377.33L300.197,1377.64ZM85.333,1381.33L85.333,1594.67L298.667,1594.67L298.667,1381.33L85.333,1381.33Z" style="fill:rgb(209,217,221);"/>
            </g>
            <g transform="matrix(1.00276,0,0,1.00276,-1.41421,-598.629)">
                <rect x="810.667" y="1930.67" width="170.667" height="170.667" style="fill:rgb(123,145,158);"/>
                <path d="M981.333,2101.33L810.667,2101.33L810.667,1930.67L981.333,1930.67L981.333,2101.33ZM814.667,1934.67L814.667,2097.33L977.333,2097.33L977.333,1934.67L814.667,1934.67Z" style="fill:rgb(209,217,221);"/>
            </g>
            <g transform="matrix(1.00276,0,0,1.00276,-1.41421,-4.99394)">
                <path d="M0,1765.33L0,1722.67L256,1722.67L256,1765.33L213.333,1765.33L213.333,1850.67L256,1850.67L256,1893.33L213.333,1893.33L42.667,1893.33C42.667,1893.33 0,1893.33 0,1893.33L0,1850.67L42.667,1850.67L42.667,1765.33L0,1765.33Z" style="fill:rgb(123,145,158);"/>
                <clipPath id="_clip7">
                    <path d="M0,1765.33L0,1722.67L256,1722.67L256,1765.33L213.333,1765.33L213.333,1850.67L256,1850.67L256,1893.33L213.333,1893.33L42.667,1893.33C42.667,1893.33 0,1893.33 0,1893.33L0,1850.67L42.667,1850.67L42.667,1765.33L0,1765.33Z"/>
                </clipPath>
                <g clip-path="url(#_clip7)">
                    <g transform="matrix(-6.12323e-17,-1,-1,6.12323e-17,1888,2448)">
                        <path d="M682.667,1888L682.667,1845.33L640,1845.33" style="fill:none;stroke:rgb(209,217,221);stroke-width:8px;"/>
                    </g>
                    <g transform="matrix(-6.12323e-17,-1,-1,6.12323e-17,2016,2448)">
                        <path d="M640,1802.67L682.667,1802.67L682.667,1760" style="fill:none;stroke:rgb(209,217,221);stroke-width:8px;"/>
                    </g>
                    <g transform="matrix(-6.12323e-17,1,-1,-6.12323e-17,1888,1168)">
                        <path d="M682.667,1888L682.667,1845.33L640,1845.33" style="fill:none;stroke:rgb(209,217,221);stroke-width:8px;"/>
                    </g>
                    <g transform="matrix(-6.12323e-17,1,-1,-6.12323e-17,2016,1168)">
                        <path d="M640,1802.67L682.667,1802.67L682.667,1760" style="fill:none;stroke:rgb(209,217,221);stroke-width:8px;"/>
                    </g>
                    <g transform="matrix(1,2.44929e-16,-2.44929e-16,1,-640,-80)">
                        <path d="M640,1802.67L896,1802.67" style="fill:none;stroke:rgb(209,217,221);stroke-width:8px;"/>
                    </g>
                    <g transform="matrix(1,2.44929e-16,-2.44929e-16,1,-640,90.6667)">
                        <path d="M640,1802.67L896,1802.67" style="fill:none;stroke:rgb(209,217,221);stroke-width:8px;"/>
                    </g>
                </g>
            </g>
            <g transform="matrix(6.14015e-17,1.00276,-1.00276,6.14015e-17,2196.64,1679.65)">
                <path d="M0,1765.33L0,1722.67L256,1722.67L256,1765.33L213.333,1765.33L213.333,1850.67L256,1850.67L256,1893.33L213.333,1893.33L42.667,1893.33C42.667,1893.33 0,1893.33 0,1893.33L0,1850.67L42.667,1850.67L42.667,1765.33L0,1765.33Z" style="fill:rgb(123,145,158);"/>
                <clipPath id="_clip8">
                    <path d="M0,1765.33L0,1722.67L256,1722.67L256,1765.33L213.333,1765.33L213.333,1850.67L256,1850.67L256,1893.33L213.333,1893.33L42.667,1893.33C42.667,1893.33 0,1893.33 0,1893.33L0,1850.67L42.667,1850.67L42.667,1765.33L0,1765.33Z"/>
                </clipPath>
                <g clip-path="url(#_clip8)">
                    <g transform="matrix(-6.12323e-17,-1,-1,6.12323e-17,1888,2448)">
                        <path d="M682.667,1888L682.667,1845.33L640,1845.33" style="fill:none;stroke:rgb(209,217,221);stroke-width:8px;"/>
                    </g>
                    <g transform="matrix(-6.12323e-17,-1,-1,6.12323e-17,2016,2448)">
                        <path d="M640,1802.67L682.667,1802.67L682.667,1760" style="fill:none;stroke:rgb(209,217,221);stroke-width:8px;"/>
                    </g>
                    <g transform="matrix(-6.12323e-17,1,-1,-6.12323e-17,1888,1168)">
                        <path d="M682.667,1888L682.667,1845.33L640,1845.33" style="fill:none;stroke:rgb(209,217,221);stroke-width:8px;"/>
                    </g>
                    <g transform="matrix(-6.12323e-17,1,-1,-6.12323e-17,2016,1168)">
                        <path d="M640,1802.67L682.667,1802.67L682.667,1760" style="fill:none;stroke:rgb(209,217,221);stroke-width:8px;"/>
                    </g>
                    <g transform="matrix(1,2.44929e-16,-2.44929e-16,1,-640,-80)">
                        <path d="M640,1802.67L896,1802.67" style="fill:none;stroke:rgb(209,217,221);stroke-width:8px;"/>
                    </g>
                    <g transform="matrix(1,2.44929e-16,-2.44929e-16,1,-640,90.6667)">
                        <path d="M640,1802.67L896,1802.67" style="fill:none;stroke:rgb(209,217,221);stroke-width:8px;"/>
                    </g>
                </g>
            </g>
            <g transform="matrix(1.00276,0,0,1.00276,-1.41421,-4.99394)">
                <path d="M597.333,1680L597.333,1722.67L682.667,1722.67L682.667,1680L725.333,1680L725.333,1722.67L768,1722.67L768,1765.33L725.333,1765.33L725.333,1850.67L768,1850.67L768,1893.33L725.333,1893.33L725.333,1936L682.667,1936L682.667,1893.33L597.333,1893.33L597.333,1936L554.667,1936L554.667,1893.33L512,1893.33L512,1850.67L554.667,1850.67L554.667,1765.33L512,1765.33L512,1722.67L554.667,1722.67L554.667,1680L597.333,1680Z" style="fill:rgb(123,145,158);"/>
                <clipPath id="_clip9">
                    <path d="M597.333,1680L597.333,1722.67L682.667,1722.67L682.667,1680L725.333,1680L725.333,1722.67L768,1722.67L768,1765.33L725.333,1765.33L725.333,1850.67L768,1850.67L768,1893.33L725.333,1893.33L725.333,1936L682.667,1936L682.667,1893.33L597.333,1893.33L597.333,1936L554.667,1936L554.667,1893.33L512,1893.33L512,1850.67L554.667,1850.67L554.667,1765.33L512,1765.33L512,1722.67L554.667,1722.67L554.667,1680L597.333,1680Z"/>
                </clipPath>
                <g clip-path="url(#_clip9)">
                    <g transform="matrix(-6.12323e-17,-1,-1,6.12323e-17,2400,2448)">
                        <path d="M682.667,1888L682.667,1845.33L640,1845.33" style="fill:none;stroke:rgb(209,217,221);stroke-width:8px;"/>
                    </g>
                    <g transform="matrix(-6.12323e-17,1,-1,-6.12323e-17,2400,1040)">
                        <path d="M682.667,1888L682.667,1845.33L640,1845.33" style="fill:none;stroke:rgb(209,217,221);stroke-width:8px;"/>
                    </g>
                    <g transform="matrix(-6.12323e-17,-1,-1,6.12323e-17,2400,2576)">
                        <path d="M682.667,1888L682.667,1845.33L640,1845.33" style="fill:none;stroke:rgb(209,217,221);stroke-width:8px;"/>
                    </g>
                    <g transform="matrix(-6.12323e-17,-1,-1,6.12323e-17,2400,2576)">
                        <path d="M640,1802.67L682.667,1802.67L682.667,1760" style="fill:none;stroke:rgb(209,217,221);stroke-width:8px;"/>
                    </g>
                    <g transform="matrix(-6.12323e-17,1,-1,-6.12323e-17,2400,1168)">
                        <path d="M682.667,1888L682.667,1845.33L640,1845.33" style="fill:none;stroke:rgb(209,217,221);stroke-width:8px;"/>
                    </g>
                    <g transform="matrix(-6.12323e-17,1,-1,-6.12323e-17,2400,1040)">
                        <path d="M640,1802.67L682.667,1802.67L682.667,1760" style="fill:none;stroke:rgb(209,217,221);stroke-width:8px;"/>
                    </g>
                    <g transform="matrix(-6.12323e-17,-1,-1,6.12323e-17,2528,2448)">
                        <path d="M640,1802.67L682.667,1802.67L682.667,1760" style="fill:none;stroke:rgb(209,217,221);stroke-width:8px;"/>
                    </g>
                    <g transform="matrix(-6.12323e-17,1,-1,-6.12323e-17,2528,1040)">
                        <path d="M682.667,1888L682.667,1845.33L640,1845.33" style="fill:none;stroke:rgb(209,217,221);stroke-width:8px;"/>
                    </g>
                    <g transform="matrix(-6.12323e-17,1,-1,-6.12323e-17,2528,1040)">
                        <path d="M640,1802.67L682.667,1802.67L682.667,1760" style="fill:none;stroke:rgb(209,217,221);stroke-width:8px;"/>
                    </g>
                    <g transform="matrix(-6.12323e-17,-1,-1,6.12323e-17,2528,2576)">
                        <path d="M682.667,1888L682.667,1845.33L640,1845.33" style="fill:none;stroke:rgb(209,217,221);stroke-width:8px;"/>
                    </g>
                    <g transform="matrix(-6.12323e-17,-1,-1,6.12323e-17,2528,2576)">
                        <path d="M640,1802.67L682.667,1802.67L682.667,1760" style="fill:none;stroke:rgb(209,217,221);stroke-width:8px;"/>
                    </g>
                    <g transform="matrix(-6.12323e-17,1,-1,-6.12323e-17,2528,1168)">
                        <path d="M640,1802.67L682.667,1802.67L682.667,1760" style="fill:none;stroke:rgb(209,217,221);stroke-width:8px;"/>
                    </g>
                </g>
            </g>
            <g transform="matrix(1.00276,0,0,1.00276,-1.41421,-4.99394)">
                <path d="M1024,1765.33L981.333,1765.33L981.333,1850.67L1024,1850.67L1024,1936L938.667,1936L938.667,1893.33L853.333,1893.33L853.333,1936L768,1936L768,1850.67L810.667,1850.67L810.667,1765.33L768,1765.33L768,1680L853.333,1680L853.333,1722.67L938.667,1722.67L938.667,1680L1024,1680L1024,1765.33Z" style="fill:rgb(123,145,158);"/>
                <clipPath id="_clip10">
                    <path d="M1024,1765.33L981.333,1765.33L981.333,1850.67L1024,1850.67L1024,1936L938.667,1936L938.667,1893.33L853.333,1893.33L853.333,1936L768,1936L768,1850.67L810.667,1850.67L810.667,1765.33L768,1765.33L768,1680L853.333,1680L853.333,1722.67L938.667,1722.67L938.667,1680L1024,1680L1024,1765.33Z"/>
                </clipPath>
                <g clip-path="url(#_clip10)">
                    <g transform="matrix(1,-1.22465e-16,-1.22465e-16,-1,256,3568)">
                        <path d="M682.667,1888L682.667,1845.33L640,1845.33" style="fill:none;stroke:rgb(209,217,221);stroke-width:8px;"/>
                    </g>
                    <g transform="matrix(1,-1.22465e-16,-1.22465e-16,-1,256,3696)">
                        <path d="M640,1802.67L682.667,1802.67L682.667,1760" style="fill:none;stroke:rgb(209,217,221);stroke-width:8px;"/>
                    </g>
                    <g transform="matrix(-1,-1.2292e-32,-1.2292e-32,-1,1536,3568)">
                        <path d="M682.667,1888L682.667,1845.33L640,1845.33" style="fill:none;stroke:rgb(209,217,221);stroke-width:8px;"/>
                    </g>
                    <g transform="matrix(-1,-1.2292e-32,-1.2292e-32,-1,1536,3696)">
                        <path d="M640,1802.67L682.667,1802.67L682.667,1760" style="fill:none;stroke:rgb(209,217,221);stroke-width:8px;"/>
                    </g>
                    <g transform="matrix(-6.12323e-17,-1,-1,6.12323e-17,2656,2448)">
                        <path d="M682.667,1888L682.667,1845.33L640,1845.33" style="fill:none;stroke:rgb(209,217,221);stroke-width:8px;"/>
                    </g>
                    <g transform="matrix(-6.12323e-17,-1,-1,6.12323e-17,2784,2448)">
                        <path d="M640,1802.67L682.667,1802.67L682.667,1760" style="fill:none;stroke:rgb(209,217,221);stroke-width:8px;"/>
                    </g>
                    <g transform="matrix(-6.12323e-17,1,-1,-6.12323e-17,2656,1168)">
                        <path d="M682.667,1888L682.667,1845.33L640,1845.33" style="fill:none;stroke:rgb(209,217,221);stroke-width:8px;"/>
                    </g>
                    <g transform="matrix(-6.12323e-17,1,-1,-6.12323e-17,2784,1168)">
                        <path d="M640,1802.67L682.667,1802.67L682.667,1760" style="fill:none;stroke:rgb(209,217,221);stroke-width:8px;"/>
                    </g>
                </g>
            </g>
            <g transform="matrix(1.00276,0,0,1.00276,-1.41421,-470.276)">
                <rect x="170.667" y="1930.67" width="42.667" height="42.667" style="fill:rgb(123,145,158);"/>
                <path d="M213.333,1973.33L170.667,1973.33L170.667,1930.67L213.333,1930.67L213.333,1973.33ZM174.667,1934.67L174.667,1969.33L209.333,1969.33L209.333,1934.67L174.667,1934.67Z" style="fill:rgb(209,217,221);"/>
            </g>
            <g transform="matrix(1.00276,0,0,1.00276,-1.41421,-609.66)">
                <path d="M85.333,2795L42.667,2795L42.667,2752.33L0,2752.33L0,2667L0,2581.67L42.667,2581.67L42.667,2539L85.333,2539L85.333,2795ZM213.333,2581.67L256,2581.67L256,2752.33L213.333,2752.33L213.333,2795L170.667,2795L170.667,2667L170.667,2539L213.333,2539L213.333,2581.67Z" style="fill:rgb(123,145,158);"/>
                <clipPath id="_clip11">
                    <path d="M85.333,2795L42.667,2795L42.667,2752.33L0,2752.33L0,2667L0,2581.67L42.667,2581.67L42.667,2539L85.333,2539L85.333,2795ZM213.333,2581.67L256,2581.67L256,2752.33L213.333,2752.33L213.333,2795L170.667,2795L170.667,2667L170.667,2539L213.333,2539L213.333,2581.67Z"/>
                </clipPath>
                <g clip-path="url(#_clip11)">
                    <g transform="matrix(-6.12323e-17,-1,-1,6.12323e-17,1888,3435)">
                        <path d="M682.667,1888L682.667,1845.33L640,1845.33" style="fill:none;stroke:rgb(209,217,221);stroke-width:8px;"/>
                    </g>
                    <g transform="matrix(-6.12323e-17,-1,-1,6.12323e-17,2016,3435)">
                        <path d="M640,1802.67L682.667,1802.67L682.667,1760" style="fill:none;stroke:rgb(209,217,221);stroke-width:8px;"/>
                    </g>
                    <g transform="matrix(-6.12323e-17,1,-1,-6.12323e-17,1888,1899)">
                        <path d="M682.667,1888L682.667,1845.33L640,1845.33" style="fill:none;stroke:rgb(209,217,221);stroke-width:8px;"/>
                    </g>
                    <g transform="matrix(-6.12323e-17,1,-1,-6.12323e-17,2016,1899)">
                        <path d="M640,1802.67L682.667,1802.67L682.667,1760" style="fill:none;stroke:rgb(209,217,221);stroke-width:8px;"/>
                    </g>
                    <g transform="matrix(-1.83697e-16,1,-1,-1.83697e-16,1973.33,1899)">
                        <path d="M640,1802.67L896,1802.67" style="fill:none;stroke:rgb(209,217,221);stroke-width:8px;"/>
                    </g>
                    <g transform="matrix(-1.83697e-16,1,-1,-1.83697e-16,1888,1899)">
                        <path d="M640,1802.67L896,1802.67" style="fill:none;stroke:rgb(209,217,221);stroke-width:8px;"/>
                    </g>
                </g>
            </g>
            <g transform="matrix(1.00276,0,0,1.00276,-1.41421,-609.66)">
                <path d="M512,2752.33L469.333,2752.33L469.333,2795L384,2795L298.667,2795L298.667,2752.33L256,2752.33L256,2709.67L512,2709.67L512,2752.33ZM469.333,2581.67L512,2581.67L512,2624.33L469.333,2624.33L384,2624.33L256,2624.33L256,2581.67L298.667,2581.67L298.667,2539L469.333,2539L469.333,2581.67Z" style="fill:rgb(123,145,158);"/>
                <clipPath id="_clip12">
                    <path d="M512,2752.33L469.333,2752.33L469.333,2795L384,2795L298.667,2795L298.667,2752.33L256,2752.33L256,2709.67L512,2709.67L512,2752.33ZM469.333,2581.67L512,2581.67L512,2624.33L469.333,2624.33L384,2624.33L256,2624.33L256,2581.67L298.667,2581.67L298.667,2539L469.333,2539L469.333,2581.67Z"/>
                </clipPath>
                <g clip-path="url(#_clip12)">
                    <g transform="matrix(-6.12323e-17,-1,-1,6.12323e-17,2144,3435)">
                        <path d="M682.667,1888L682.667,1845.33L640,1845.33" style="fill:none;stroke:rgb(209,217,221);stroke-width:8px;"/>
                    </g>
                    <g transform="matrix(-6.12323e-17,-1,-1,6.12323e-17,2272,3435)">
                        <path d="M640,1802.67L682.667,1802.67L682.667,1760" style="fill:none;stroke:rgb(209,217,221);stroke-width:8px;"/>
                    </g>
                    <g transform="matrix(-6.12323e-17,1,-1,-6.12323e-17,2144,1899)">
                        <path d="M682.667,1888L682.667,1845.33L640,1845.33" style="fill:none;stroke:rgb(209,217,221);stroke-width:8px;"/>
                    </g>
                    <g transform="matrix(-6.12323e-17,1,-1,-6.12323e-17,2272,1899)">
                        <path d="M640,1802.67L682.667,1802.67L682.667,1760" style="fill:none;stroke:rgb(209,217,221);stroke-width:8px;"/>
                    </g>
                    <g transform="matrix(-1,-1.22465e-16,1.22465e-16,-1,1152,4512.33)">
                        <path d="M640,1802.67L896,1802.67" style="fill:none;stroke:rgb(209,217,221);stroke-width:8px;"/>
                    </g>
                    <g transform="matrix(-1,-1.22465e-16,1.22465e-16,-1,1152,4427)">
                        <path d="M640,1802.67L896,1802.67" style="fill:none;stroke:rgb(209,217,221);stroke-width:8px;"/>
                    </g>
                </g>
            </g>
            <g>
                <g transform="matrix(-6.14015e-17,-1.00276,1.00276,-6.14015e-17,-1509.57,2064.71)">
                    <rect x="0" y="2400" width="85.333" height="128" style="fill:rgb(123,145,158);"/>
                    <clipPath id="_clip13">
                        <rect x="0" y="2400" width="85.333" height="128"/>
                    </clipPath>
                    <g clip-path="url(#_clip13)">
                        <g transform="matrix(-6.12323e-17,1,-1,-6.12323e-17,1888,1674.67)">
                            <path d="M725.333,1802.67L853.333,1802.67" style="fill:none;stroke:rgb(209,217,221);stroke-width:8px;"/>
                        </g>
                    </g>
                </g>
                <g transform="matrix(-6.14015e-17,-1.00276,1.00276,-6.14015e-17,-1637.92,2150.28)">
                    <rect x="0" y="2400" width="85.333" height="128" style="fill:rgb(123,145,158);"/>
                    <clipPath id="_clip14">
                        <rect x="0" y="2400" width="85.333" height="128"/>
                    </clipPath>
                    <g clip-path="url(#_clip14)">
                        <g transform="matrix(-6.12323e-17,-1,1,-6.12323e-17,-1802.67,3253.33)">
                            <path d="M725.333,1802.67L853.333,1802.67" style="fill:none;stroke:rgb(209,217,221);stroke-width:8px;"/>
                        </g>
                    </g>
                </g>
                <g transform="matrix(1.00276,-1.22803e-16,1.22803e-16,1.00276,768.707,-470.276)">
                    <rect x="0" y="2400" width="85.333" height="128" style="fill:rgb(123,145,158);"/>
                    <clipPath id="_clip15">
                        <rect x="0" y="2400" width="85.333" height="128"/>
                    </clipPath>
                    <g clip-path="url(#_clip15)">
                        <g transform="matrix(1.83697e-16,-1,1,1.83697e-16,-1717.33,3296)">
                            <path d="M768,1802.67L896,1802.67" style="fill:none;stroke:rgb(209,217,221);stroke-width:8px;"/>
                        </g>
                    </g>
                </g>
                <g transform="matrix(1.00276,-1.22803e-16,1.22803e-16,1.00276,939.845,-341.922)">
                    <rect x="0" y="2400" width="85.333" height="128" style="fill:rgb(123,145,158);"/>
                    <clipPath id="_clip16">
                        <rect x="0" y="2400" width="85.333" height="128"/>
                    </clipPath>
                    <g clip-path="url(#_clip16)">
                        <g transform="matrix(-6.12323e-17,1,-1,-6.12323e-17,1802.67,1632)">
                            <path d="M768,1802.67L896,1802.67" style="fill:none;stroke:rgb(209,217,221);stroke-width:8px;"/>
                        </g>
                    </g>
                </g>
            </g>
            <g>
                <g transform="matrix(1.00276,0,0,1.00276,-258.121,-470.276)">
                    <path d="M810.667,2613.33L768,2613.33L768,2528L896,2528L896,2613.33L853.333,2613.33L853.333,2656L810.667,2656L810.667,2613.33Z" style="fill:rgb(123,145,158);"/>
                    <clipPath id="_clip17">
                        <path d="M810.667,2613.33L768,2613.33L768,2528L896,2528L896,2613.33L853.333,2613.33L853.333,2656L810.667,2656L810.667,2613.33Z"/>
                    </clipPath>
                    <g clip-path="url(#_clip17)">
                        <g transform="matrix(-6.12323e-17,-1,-1,6.12323e-17,2656,3296)">
                            <path d="M682.667,1888L682.667,1845.33L640,1845.33" style="fill:none;stroke:rgb(209,217,221);stroke-width:8px;"/>
                        </g>
                        <g transform="matrix(-6.12323e-17,-1,-1,6.12323e-17,2656,3296)">
                            <path d="M640,1802.67L682.667,1802.67L682.667,1760" style="fill:none;stroke:rgb(209,217,221);stroke-width:8px;"/>
                        </g>
                    </g>
                </g>
                <g transform="matrix(-1.00276,1.22803e-16,-1.22803e-16,-1.00276,1538.83,4728.04)">
                    <path d="M810.667,2613.33L768,2613.33L768,2528L896,2528L896,2613.33L853.333,2613.33L853.333,2656L810.667,2656L810.667,2613.33Z" style="fill:rgb(123,145,158);"/>
                    <clipPath id="_clip18">
                        <path d="M810.667,2613.33L768,2613.33L768,2528L896,2528L896,2613.33L853.333,2613.33L853.333,2656L810.667,2656L810.667,2613.33Z"/>
                    </clipPath>
                    <g clip-path="url(#_clip18)">
                        <g transform="matrix(-6.12323e-17,-1,-1,6.12323e-17,2656,3296)">
                            <path d="M682.667,1888L682.667,1845.33L640,1845.33" style="fill:none;stroke:rgb(209,217,221);stroke-width:8px;"/>
                        </g>
                        <g transform="matrix(-6.12323e-17,-1,-1,6.12323e-17,2656,3296)">
                            <path d="M640,1802.67L682.667,1802.67L682.667,1760" style="fill:none;stroke:rgb(209,217,221);stroke-width:8px;"/>
                        </g>
                    </g>
                </g>
                <g transform="matrix(1.00276,0,0,1.00276,-1.41421,-609.66)">
                    <path d="M725.333,2581.67L768,2581.67L768,2624.33L725.333,2624.33L725.333,2667L640,2667L554.667,2667L554.667,2624.33L512,2624.33L512,2581.67L554.667,2581.67L554.667,2539L725.333,2539L725.333,2581.67Z" style="fill:rgb(123,145,158);"/>
                    <clipPath id="_clip19">
                        <path d="M725.333,2581.67L768,2581.67L768,2624.33L725.333,2624.33L725.333,2667L640,2667L554.667,2667L554.667,2624.33L512,2624.33L512,2581.67L554.667,2581.67L554.667,2539L725.333,2539L725.333,2581.67Z"/>
                    </clipPath>
                    <g clip-path="url(#_clip19)">
                        <g transform="matrix(-1,2.44929e-16,2.44929e-16,1,1408,779)">
                            <path d="M682.667,1888L682.667,1845.33L640,1845.33" style="fill:none;stroke:rgb(209,217,221);stroke-width:8px;"/>
                        </g>
                        <g transform="matrix(-1,2.44929e-16,2.44929e-16,1,1408,779)">
                            <path d="M640,1802.67L682.667,1802.67L682.667,1760" style="fill:none;stroke:rgb(209,217,221);stroke-width:8px;"/>
                        </g>
                        <g transform="matrix(1,2.44929e-16,-2.44929e-16,1,-128,779)">
                            <path d="M682.667,1888L682.667,1845.33L640,1845.33" style="fill:none;stroke:rgb(209,217,221);stroke-width:8px;"/>
                        </g>
                        <g transform="matrix(1,2.44929e-16,-2.44929e-16,1,-128,779)">
                            <path d="M640,1802.67L682.667,1802.67L682.667,1760" style="fill:none;stroke:rgb(209,217,221);stroke-width:8px;"/>
                        </g>
                    </g>
                </g>
            </g>
            <g transform="matrix(1.00276,0,0,1.00276,-1.41421,-470.276)">
                <path d="M128,2784L42.667,2784L42.667,2741.33L0,2741.33L0,2656L128,2656L128,2784Z" style="fill:rgb(123,145,158);"/>
                <clipPath id="_clip20">
                    <path d="M128,2784L42.667,2784L42.667,2741.33L0,2741.33L0,2656L128,2656L128,2784Z"/>
                </clipPath>
                <g clip-path="url(#_clip20)">
                    <g transform="matrix(-6.12323e-17,-1,-1,6.12323e-17,1888,3424)">
                        <path d="M682.667,1888L682.667,1845.33L640,1845.33" style="fill:none;stroke:rgb(209,217,221);stroke-width:8px;"/>
                    </g>
                </g>
            </g>
            <g transform="matrix(6.14015e-17,1.00276,-1.00276,6.14015e-17,2918.63,2193.06)">
                <path d="M128,2784L42.667,2784L42.667,2741.33L0,2741.33L0,2656L128,2656L128,2784Z" style="fill:rgb(123,145,158);"/>
                <clipPath id="_clip21">
                    <path d="M128,2784L42.667,2784L42.667,2741.33L0,2741.33L0,2656L128,2656L128,2784Z"/>
                </clipPath>
                <g clip-path="url(#_clip21)">
                    <g transform="matrix(1,1.22465e-16,-1.22465e-16,1,-640,896)">
                        <path d="M682.667,1888L682.667,1845.33L640,1845.33" style="fill:none;stroke:rgb(209,217,221);stroke-width:8px;"/>
                    </g>
                </g>
            </g>
            <g transform="matrix(-1.00276,1.22803e-16,-1.22803e-16,-1.00276,383.646,4984.75)">
                <path d="M128,2784L42.667,2784L42.667,2741.33L0,2741.33L0,2656L128,2656L128,2784Z" style="fill:rgb(123,145,158);"/>
                <clipPath id="_clip22">
                    <path d="M128,2784L42.667,2784L42.667,2741.33L0,2741.33L0,2656L128,2656L128,2784Z"/>
                </clipPath>
                <g clip-path="url(#_clip22)">
                    <g transform="matrix(1.83697e-16,-1,1,1.83697e-16,-1760,3424)">
                        <path d="M640,1802.67L682.667,1802.67L682.667,1760" style="fill:none;stroke:rgb(209,217,221);stroke-width:8px;"/>
                    </g>
                </g>
            </g>
            <g transform="matrix(-1.84204e-16,-1.00276,1.00276,-1.84204e-16,-2279.69,2321.41)">
                <path d="M128,2784L42.667,2784L42.667,2741.33L0,2741.33L0,2656L128,2656L128,2784Z" style="fill:rgb(123,145,158);"/>
                <clipPath id="_clip23">
                    <path d="M128,2784L42.667,2784L42.667,2741.33L0,2741.33L0,2656L128,2656L128,2784Z"/>
                </clipPath>
                <g clip-path="url(#_clip23)">
                    <g transform="matrix(1,1.22465e-16,1.22465e-16,-1,-640,4544)">
                        <path d="M640,1802.67L682.667,1802.67L682.667,1760" style="fill:none;stroke:rgb(209,217,221);stroke-width:8px;"/>
                    </g>
                </g>
            </g>
            <g transform="matrix(-1.84204e-16,-1.00276,1.00276,-1.84204e-16,-2151.34,2321.41)">
                <rect x="0" y="2656" width="128" height="128" style="fill:rgb(123,145,158);"/>
            </g>
        </g>
    </g>
</svg>
