<?xml version="1.0" encoding="UTF-8" standalone="no"?>
<!DOCTYPE svg PUBLIC "-//W3C//DTD SVG 1.1//EN" "http://www.w3.org/Graphics/SVG/1.1/DTD/svg11.dtd">
<svg width="100%" height="100%" viewBox="0 0 1024 384" version="1.1" xmlns="http://www.w3.org/2000/svg" xmlns:xlink="http://www.w3.org/1999/xlink" xml:space="preserve" xmlns:serif="http://www.serif.com/" style="fill-rule:evenodd;clip-rule:evenodd;stroke-linecap:square;stroke-linejoin:round;stroke-miterlimit:1.5;">
    <g transform="matrix(1,0,0,1,0,-1063)">
        <g id="_3by3-basic" serif:id="3by3-basic" transform="matrix(0.997245,0,0,0.373967,1.41032,578.868)">
            <rect x="-1.414" y="1294.59" width="1026.83" height="1026.83" style="fill:none;"/>
            <clipPath id="_clip1">
                <rect x="-1.414" y="1294.59" width="1026.83" height="1026.83"/>
            </clipPath>
            <g clip-path="url(#_clip1)">
                <g transform="matrix(0.534806,0,0,1.78269,409.317,-1101.35)">
                    <rect x="32" y="1792" width="320" height="64" style="fill:rgb(123,145,158);"/>
                    <path d="M352,1856L32,1856L32,1792L352,1792L352,1856ZM39.5,1798L39.5,1850L344.5,1850L344.5,1798L39.5,1798Z" style="fill:rgb(209,217,221);"/>
                </g>
                <g transform="matrix(3.27475e-17,1.42615,-0.668508,1.09158e-16,1667.18,1363.04)">
                    <rect x="32" y="1792" width="320" height="64" style="fill:rgb(123,145,158);"/>
                    <path d="M352,1792L352,1856L32,1856L32,1792L352,1792ZM39.5,1850L344.5,1850L344.5,1798L39.5,1798L39.5,1850Z" style="fill:rgb(209,217,221);"/>
                </g>
                <g id="T" transform="matrix(-6.14015e-17,-2.67403,-1.00276,1.63737e-16,2405.21,3690.52)">
                    <path d="M725.333,1760L725.333,1888L682.667,1888L682.667,1845.33L640,1845.33L640,1802.67L682.667,1802.67L682.667,1760L725.333,1760Z" style="fill:rgb(123,145,158);"/>
                    <clipPath id="_clip2">
                        <path d="M725.333,1760L725.333,1888L682.667,1888L682.667,1845.33L640,1845.33L640,1802.67L682.667,1802.67L682.667,1760L725.333,1760Z"/>
                    </clipPath>
                    <g clip-path="url(#_clip2)">
                        <path d="M725.333,1760L725.333,1888" style="fill:none;stroke:rgb(209,217,221);stroke-width:8px;"/>
                        <path d="M682.667,1888L682.667,1845.33L640,1845.33" style="fill:none;stroke:rgb(209,217,221);stroke-width:8px;"/>
                        <path d="M640,1802.67L682.667,1802.67L682.667,1760" style="fill:none;stroke:rgb(209,217,221);stroke-width:8px;"/>
                    </g>
                </g>
                <g id="T1" serif:id="T" transform="matrix(1.00276,-3.27475e-16,-1.22803e-16,-2.67403,-1.41421,6343.16)">
                    <path d="M725.333,1760L725.333,1888L682.667,1888L682.667,1845.33L640,1845.33L640,1802.67L682.667,1802.67L682.667,1760L725.333,1760Z" style="fill:rgb(123,145,158);"/>
                    <clipPath id="_clip3">
                        <path d="M725.333,1760L725.333,1888L682.667,1888L682.667,1845.33L640,1845.33L640,1802.67L682.667,1802.67L682.667,1760L725.333,1760Z"/>
                    </clipPath>
                    <g clip-path="url(#_clip3)">
                        <path d="M725.333,1760L725.333,1888" style="fill:none;stroke:rgb(209,217,221);stroke-width:8px;"/>
                        <path d="M682.667,1888L682.667,1845.33L640,1845.33" style="fill:none;stroke:rgb(209,217,221);stroke-width:8px;"/>
                        <path d="M640,1802.67L682.667,1802.67L682.667,1760" style="fill:none;stroke:rgb(209,217,221);stroke-width:8px;"/>
                    </g>
                </g>
                <g id="T2" serif:id="T" transform="matrix(1.84204e-16,2.67403,1.00276,-4.91212e-16,-1124.51,-74.5188)">
                    <path d="M725.333,1760L725.333,1888L682.667,1888L682.667,1845.33L640,1845.33L640,1802.67L682.667,1802.67L682.667,1760L725.333,1760Z" style="fill:rgb(123,145,158);"/>
                    <clipPath id="_clip4">
                        <path d="M725.333,1760L725.333,1888L682.667,1888L682.667,1845.33L640,1845.33L640,1802.67L682.667,1802.67L682.667,1760L725.333,1760Z"/>
                    </clipPath>
                    <g clip-path="url(#_clip4)">
                        <path d="M725.333,1760L725.333,1888" style="fill:none;stroke:rgb(209,217,221);stroke-width:8px;"/>
                        <path d="M682.667,1888L682.667,1845.33L640,1845.33" style="fill:none;stroke:rgb(209,217,221);stroke-width:8px;"/>
                        <path d="M640,1802.67L682.667,1802.67L682.667,1760" style="fill:none;stroke:rgb(209,217,221);stroke-width:8px;"/>
                    </g>
                </g>
                <g id="T3" serif:id="T" transform="matrix(-1.00276,-3.27475e-16,1.22803e-16,-2.67403,1282.12,6343.16)">
                    <path d="M725.333,1760L725.333,1888L682.667,1888L682.667,1845.33L640,1845.33L640,1802.67L682.667,1802.67L682.667,1760L725.333,1760Z" style="fill:rgb(123,145,158);"/>
                    <clipPath id="_clip5">
                        <path d="M725.333,1760L725.333,1888L682.667,1888L682.667,1845.33L640,1845.33L640,1802.67L682.667,1802.67L682.667,1760L725.333,1760Z"/>
                    </clipPath>
                    <g clip-path="url(#_clip5)">
                        <path d="M725.333,1760L725.333,1888" style="fill:none;stroke:rgb(209,217,221);stroke-width:8px;"/>
                        <path d="M682.667,1888L682.667,1845.33L640,1845.33" style="fill:none;stroke:rgb(209,217,221);stroke-width:8px;"/>
                        <path d="M640,1802.67L682.667,1802.67L682.667,1760" style="fill:none;stroke:rgb(209,217,221);stroke-width:8px;"/>
                    </g>
                </g>
                <g id="Cross" transform="matrix(1.00276,0,0,2.67403,-129.768,-2727.16)">
                    <path d="M853.333,1802.67L896,1802.67L896,1845.33L853.333,1845.33L853.333,1888L810.667,1888L810.667,1845.33L768,1845.33L768,1802.67L810.667,1802.67L810.667,1760L853.333,1760L853.333,1802.67Z" style="fill:rgb(123,145,158);"/>
                    <clipPath id="_clip6">
                        <path d="M853.333,1802.67L896,1802.67L896,1845.33L853.333,1845.33L853.333,1888L810.667,1888L810.667,1845.33L768,1845.33L768,1802.67L810.667,1802.67L810.667,1760L853.333,1760L853.333,1802.67Z"/>
                    </clipPath>
                    <g clip-path="url(#_clip6)">
                        <g transform="matrix(-6.12323e-17,-1,-1,6.12323e-17,2656,2528)">
                            <path d="M682.667,1888L682.667,1845.33L640,1845.33" style="fill:none;stroke:rgb(209,217,221);stroke-width:8px;"/>
                        </g>
                        <g transform="matrix(-6.12323e-17,-1,-1,6.12323e-17,2656,2528)">
                            <path d="M640,1802.67L682.667,1802.67L682.667,1760" style="fill:none;stroke:rgb(209,217,221);stroke-width:8px;"/>
                        </g>
                        <g transform="matrix(-6.12323e-17,1,-1,-6.12323e-17,2656,1120)">
                            <path d="M682.667,1888L682.667,1845.33L640,1845.33" style="fill:none;stroke:rgb(209,217,221);stroke-width:8px;"/>
                        </g>
                        <g transform="matrix(-6.12323e-17,1,-1,-6.12323e-17,2656,1120)">
                            <path d="M640,1802.67L682.667,1802.67L682.667,1760" style="fill:none;stroke:rgb(209,217,221);stroke-width:8px;"/>
                        </g>
                    </g>
                </g>
                <g transform="matrix(1.00276,0,0,2.67403,-1.41421,-2170.96)">
                    <path d="M42.667,1338.67L341.333,1338.67L341.333,1637.33L42.667,1637.33L42.667,1338.67ZM85.333,1381.33L85.333,1594.67L298.667,1594.67L298.667,1381.33L85.333,1381.33Z" style="fill:rgb(123,145,158);"/>
                    <path d="M341.333,1637.33L42.667,1637.33L42.667,1338.67L341.333,1338.67L341.333,1637.33ZM46.667,1342.67L46.667,1633.33L337.333,1633.33L337.333,1342.67L46.667,1342.67ZM300.197,1377.64L301.495,1378.51L302.362,1379.8L302.667,1381.33L302.667,1594.67L302.362,1596.2L301.495,1597.5L300.197,1598.36L298.667,1598.67L85.333,1598.67L83.803,1598.36L82.505,1597.5L81.638,1596.2L81.333,1594.67L81.333,1381.33L81.638,1379.8L82.505,1378.51L83.803,1377.64L85.333,1377.33L298.667,1377.33L300.197,1377.64ZM85.333,1381.33L85.333,1594.67L298.667,1594.67L298.667,1381.33L85.333,1381.33Z" style="fill:rgb(209,217,221);"/>
                </g>
                <g transform="matrix(1.00276,0,0,2.67403,-1.41421,-3753.99)">
                    <rect x="810.667" y="1930.67" width="170.667" height="170.667" style="fill:rgb(123,145,158);"/>
                    <path d="M981.333,2101.33L810.667,2101.33L810.667,1930.67L981.333,1930.67L981.333,2101.33ZM814.667,1934.67L814.667,2097.33L977.333,2097.33L977.333,1934.67L814.667,1934.67Z" style="fill:rgb(209,217,221);"/>
                </g>
                <g transform="matrix(1.00276,0,0,2.67403,-1.41421,-3411.71)">
                    <rect x="170.667" y="1930.67" width="42.667" height="42.667" style="fill:rgb(123,145,158);"/>
                    <path d="M213.333,1973.33L170.667,1973.33L170.667,1930.67L213.333,1930.67L213.333,1973.33ZM174.667,1934.67L174.667,1969.33L209.333,1969.33L209.333,1934.67L174.667,1934.67Z" style="fill:rgb(209,217,221);"/>
                </g>
            </g>
        </g>
    </g>
</svg>
